<?xml version="1.0" encoding="UTF-8" standalone="no"?>
<!-- Generator: Adobe Illustrator 19.2.1, SVG Export Plug-In . SVG Version: 6.00 Build 0)  -->

<svg
   version="1.1"
   id="layer"
   x="0px"
   y="0px"
   viewBox="0 0 599.78143 140.50131"
   xml:space="preserve"
   sodipodi:docname="canopen-2.svg"
   width="599.78143"
   height="140.50131"
   inkscape:version="1.4 (86a8ad7, 2024-10-11)"
   xmlns:inkscape="http://www.inkscape.org/namespaces/inkscape"
   xmlns:sodipodi="http://sodipodi.sourceforge.net/DTD/sodipodi-0.dtd"
   xmlns="http://www.w3.org/2000/svg"
   xmlns:svg="http://www.w3.org/2000/svg"><defs
   id="defs7" /><sodipodi:namedview
   id="namedview7"
   pagecolor="#ffffff"
   bordercolor="#000000"
   borderopacity="0.25"
   inkscape:showpageshadow="2"
   inkscape:pageopacity="0.0"
   inkscape:pagecheckerboard="0"
   inkscape:deskcolor="#d1d1d1"
   inkscape:zoom="1.7377301"
   inkscape:cx="304.70785"
   inkscape:cy="73.947042"
   inkscape:window-width="3440"
   inkscape:window-height="1351"
   inkscape:window-x="-9"
   inkscape:window-y="-9"
   inkscape:window-maximized="1"
   inkscape:current-layer="layer" />
<style
   type="text/css"
   id="style1">
	.st0{fill-rule:evenodd;clip-rule:evenodd;fill:#007447;}
</style>
<g
   id="g7"
   transform="translate(-21.440767,-252.09869)">
	<path
   class="st0"
   d="m 150.9,328.4 h -10.2 v -27.3 h 10.2 c -0.3,-4.6 0.7,-10 -0.9,-13.7 -2.2,-5.2 -10.7,-5.8 -13.3,-0.3 -1.9,4 -0.9,12 -0.9,17.8 v 55.7 h -33.2 v -35.5 c 0,-12 -0.6,-23.9 0,-35.3 0.6,-10.9 5.6,-19.6 11.4,-25.7 6.1,-6.5 14.3,-11.2 25.7,-11.9 13.6,-0.8 23.9,3.2 31.1,9.8 6.7,6.2 12.5,16 13.3,27.6 0.4,5.8 0,11.9 0,17.8 v 53.3 h -33.2"
   id="path1" />
	<path
   class="st0"
   d="m 254.2,298.3 c 0.4,-14.4 0,-29.5 0.2,-44.2 h 33.2 v 69.2 c 0,7.8 0.5,15.5 0,23 -0.7,9.2 -6.8,15.7 -15.7,16.6 -7.3,0.7 -12.4,-2 -16.1,-5.2 -4,-3.4 -6,-8 -8.4,-12.8 -4.7,-9.4 -9.8,-19 -14.3,-28 -0.4,14.3 0,29.3 -0.2,43.9 h -33.2 v -69 c 0,-7.8 -0.5,-15.5 0,-22.8 0.7,-9.3 7.2,-15.8 15.8,-16.6 7.2,-0.6 12.2,2 16,5.2 4,3.4 6.1,8.2 8.4,12.8 4.7,9.4 9.7,18.7 14.3,27.9"
   id="path2" />
	<path
   class="st0"
   d="m 90.5,254.2 v 30.5 C 81,284.3 72.9,284.8 66.7,288.4 60,292.2 55.3,299.3 56,310 c 0.6,7.8 5.1,13.6 10.7,16.8 6,3.4 14.2,4.1 23.8,3.7 V 361 c -10.2,0.2 -19.2,0.8 -27.1,-0.8 -7.5,-1.5 -13.9,-4.4 -19.5,-8.4 C 33.1,344.2 25,333 22.3,317.7 19.2,300.1 24.9,284.2 32.8,274 c 7.8,-10.1 20.3,-18.6 36.6,-19.6 6.7,-0.7 13.3,-0.2 21.1,-0.2"
   id="path3" />
	<path
   class="st0"
   d="m 339,287.2 c 12.2,-1 21.6,3.5 27.7,9.3 6.1,5.8 11.4,13.6 12.2,24.8 0.9,12.1 -3.2,21.5 -8.8,28.2 -5.5,6.6 -13.5,11.8 -24.4,12.6 -12,1 -21.4,-3.4 -27.6,-9.1 -6.6,-6.1 -11.3,-13.8 -12.2,-24.8 -1,-12.6 3.2,-21.7 8.5,-28.2 5.2,-6.2 14,-11.9 24.6,-12.8 M 319.4,304 c -4.4,5.5 -8.1,13.6 -7.3,23.8 0.7,8.7 4.9,16 10.1,20.9 5.4,5.1 13.5,8.8 23,8.1 8.4,-0.7 15.2,-5.2 19.5,-10.2 4.7,-5.5 8.1,-12.6 8.1,-21.8 0,-9.3 -4,-17.1 -8.1,-21.8 -5.2,-6.1 -13.7,-11.1 -25.1,-10.1 -9.2,0.8 -16,5.8 -20.2,11.1"
   id="path4" />
	<path
   class="st0"
   d="m 406.5,353.2 c 0,-2.3 0,-4.4 0,-6.4 0,-0.5 0.6,0.2 0.9,0.5 6,5.1 12.1,10.3 23.8,9.4 7.7,-0.6 14,-4.8 18.4,-9.6 5.4,-5.9 9.1,-14.2 8.4,-25.1 -0.5,-8.2 -4,-14.9 -8.4,-19.6 -4.8,-5.2 -12.1,-10.5 -23.2,-9.6 -9.2,0.7 -15.8,5.8 -20.1,11.6 -4.8,6.5 -6.7,14.6 -6.7,25 0,20.2 0,42.8 0,63.2 h -5.8 v -68.4 c 0,-10.8 3.7,-19.2 9,-25.3 6.2,-7 15.4,-12.6 29.1,-11.7 12.8,0.8 21.5,8.1 26.8,16.9 5.5,9.2 7.5,23 2.9,35.5 -3.8,10.4 -11.9,18.2 -22.2,21.3 -5.4,1.7 -13,2 -19,0.3 -5.7,-1.7 -9.8,-4.3 -13.9,-8"
   id="path5" />
	<path
   class="st0"
   d="m 544.8,304.6 c -8.3,6.3 -17.2,11.8 -25.7,17.7 -8.6,5.9 -17.1,11.7 -25.7,17.5 -1.6,-1.4 -2.8,-3.1 -3.8,-5 15.4,-10.3 30.7,-20.8 46.2,-31.1 -2.2,-3.6 -6,-6.1 -10.1,-8.1 -4.3,-2.1 -9.4,-3.3 -15.5,-2.9 -8.3,0.6 -14.7,4.4 -19.6,9.4 -5.6,5.7 -9.8,14.3 -9,25.6 0.6,8.4 4.3,14.9 9,19.8 5.5,5.8 13.7,9.9 24.8,9.1 8.6,-0.6 15.4,-4.6 20.1,-9.6 4.9,-5.2 8.7,-11.8 8.8,-20.9 h 6.2 c -0.6,11.4 -4.3,18.6 -10.2,24.7 -5.6,5.7 -13.1,10.8 -23.5,11.4 -12,0.7 -21.5,-2.8 -28.8,-8.8 -6.9,-5.6 -11.8,-14 -12.6,-25 -1,-12 2.7,-21.7 8.7,-28.6 5.8,-6.7 14,-12 25.3,-12.8 18.2,-1.2 28.1,7.4 35.4,17.6"
   id="path6" />
	<path
   class="st0"
   d="m 621.1,360.8 h -5.8 v -34.7 c 0,-6.1 0.2,-11.7 -1.1,-16.3 -2.6,-9.5 -10.8,-18.1 -24.4,-17.1 -6.5,0.5 -11.3,3.7 -14.6,7.6 -3.6,4.3 -5.7,9.2 -6.1,16.1 -0.7,13.2 0.2,29.7 -0.2,44.3 h -5.8 c 0.6,-16.3 -0.8,-32.2 0,-46.8 0.4,-7.8 3.6,-13.8 7.9,-18.3 4.3,-4.5 10.1,-8.1 18,-8.7 9.9,-0.7 17.1,2.3 22.4,7 5.1,4.5 9,11.1 9.6,19.7 0.5,7.7 0,15.6 0,23.6 v 23.6 z"
   id="path7" />
</g>
</svg>
