<?xml version="1.0" encoding="UTF-8" standalone="no"?>
<!-- Uploaded to: SVG Repo, www.svgrepo.com, Generator: SVG Repo Mixer Tools -->

<svg
   fill="#000000"
   width="800px"
   height="800px"
   viewBox="0 0 24 24"
   version="1.1"
   id="svg2"
   sodipodi:docname="export-1.svg"
   inkscape:version="1.4 (86a8ad7, 2024-10-11)"
   xmlns:inkscape="http://www.inkscape.org/namespaces/inkscape"
   xmlns:sodipodi="http://sodipodi.sourceforge.net/DTD/sodipodi-0.dtd"
   xmlns="http://www.w3.org/2000/svg"
   xmlns:svg="http://www.w3.org/2000/svg">
  <defs
     id="defs2" />
  <sodipodi:namedview
     id="namedview2"
     pagecolor="#ffffff"
     bordercolor="#000000"
     borderopacity="0.25"
     inkscape:showpageshadow="2"
     inkscape:pageopacity="0.0"
     inkscape:pagecheckerboard="0"
     inkscape:deskcolor="#d1d1d1"
     inkscape:zoom="1.41625"
     inkscape:cx="400"
     inkscape:cy="400"
     inkscape:window-width="3440"
     inkscape:window-height="1351"
     inkscape:window-x="-9"
     inkscape:window-y="-9"
     inkscape:window-maximized="1"
     inkscape:current-layer="g2" />
  <g
     id="Export">
    <g
       id="g2">
      <path
         d="M5.552,20.968a2.577,2.577,0,0,1-2.5-2.73c-.012-2.153,0-4.306,0-6.459a.5.5,0,0,1,1,0c0,2.2-.032,4.4,0,6.6.016,1.107.848,1.589,1.838,1.589H18.353A1.546,1.546,0,0,0,19.825,19a3.023,3.023,0,0,0,.1-1.061V11.779h0a.5.5,0,0,1,1,0c0,2.224.085,4.465,0,6.687a2.567,2.567,0,0,1-2.67,2.5Z"
         id="path1"
         style="stroke:#000000;stroke-opacity:1;stroke-width:0.3;stroke-dasharray:none" />
      <path
         d="M12.337,3.176a.455.455,0,0,0-.311-.138c-.015,0-.028,0-.043-.006s-.027,0-.041.006a.457.457,0,0,0-.312.138L7.961,6.845a.5.5,0,0,0,.707.707l2.816-2.815V15.479a.5.5,0,0,0,1,0V4.737L15.3,7.552a.5.5,0,0,0,.707-.707Z"
         id="path2"
         style="stroke:#000000;stroke-opacity:1;stroke-width:0.3;stroke-dasharray:none" />
    </g>
  </g>
</svg>
