<?xml version="1.0" encoding="UTF-8" standalone="no"?>
<!-- Uploaded to: SVG Repo, www.svgrepo.com, Generator: SVG Repo Mixer Tools -->

<svg
   width="800px"
   height="800px"
   viewBox="0 0 24 24"
   fill="none"
   version="1.1"
   id="svg1"
   sodipodi:docname="find-up.svg"
   inkscape:version="1.4 (86a8ad7, 2024-10-11)"
   xmlns:inkscape="http://www.inkscape.org/namespaces/inkscape"
   xmlns:sodipodi="http://sodipodi.sourceforge.net/DTD/sodipodi-0.dtd"
   xmlns="http://www.w3.org/2000/svg"
   xmlns:svg="http://www.w3.org/2000/svg">
  <defs
     id="defs1" />
  <sodipodi:namedview
     id="namedview1"
     pagecolor="#ffffff"
     bordercolor="#000000"
     borderopacity="0.25"
     inkscape:showpageshadow="2"
     inkscape:pageopacity="0.0"
     inkscape:pagecheckerboard="0"
     inkscape:deskcolor="#d1d1d1"
     inkscape:zoom="1.41625"
     inkscape:cx="400"
     inkscape:cy="400"
     inkscape:window-width="3440"
     inkscape:window-height="1351"
     inkscape:window-x="-9"
     inkscape:window-y="-9"
     inkscape:window-maximized="1"
     inkscape:current-layer="svg1" />
  <path
     fill-rule="evenodd"
     clip-rule="evenodd"
     d="m 7.945278,6.842895 c -2.76142,0 -5,2.23858 -5,5 0,2.7614 2.23858,5 5,5 1.381,0 2.6296,-0.5585 3.5355,-1.4645 0.906,-0.9059 1.4645,-2.1545 1.4645,-3.5355 0,-2.76142 -2.2386,-5 -5,-5 z m -6.99999998,5 c 0,-3.86599 3.13400998,-7 6.99999998,-7 3.866,0 7,3.13401 7,7 0,1.5719 -0.519,3.0239 -1.3937,4.1921 l 5.1008,5.1008 c 0.3905,0.3905 0.3905,1.0237 0,1.4142 -0.3905,0.3905 -1.0237,0.3905 -1.4142,0 l -5.1008,-5.1008 c -1.1682,0.8747 -2.6202,1.3937 -4.1921,1.3937 -3.86599,0 -6.99999998,-3.134 -6.99999998,-7 z"
     fill="#000000"
     id="path1" />
  <path
     d="m 18.809258,1.5179632 v 8.7763238 m 0,-8.7763238 -3.102195,3.656802 m 3.102195,-3.656802 3.102196,3.656802"
     stroke="#000000"
     stroke-width="1.34724"
     stroke-linecap="round"
     stroke-linejoin="round"
     id="path1-8" />
</svg>
