<?xml version="1.0" encoding="UTF-8" standalone="no"?>
<!-- Generator: Adobe Illustrator 19.2.1, SVG Export Plug-In . SVG Version: 6.00 Build 0)  -->

<svg
   version="1.1"
   id="layer"
   x="0px"
   y="0px"
   viewBox="0 0 599.78143 140.50131"
   xml:space="preserve"
   sodipodi:docname="can-2.svg"
   width="599.78143"
   height="140.50131"
   inkscape:version="1.4 (86a8ad7, 2024-10-11)"
   xmlns:inkscape="http://www.inkscape.org/namespaces/inkscape"
   xmlns:sodipodi="http://sodipodi.sourceforge.net/DTD/sodipodi-0.dtd"
   xmlns="http://www.w3.org/2000/svg"
   xmlns:svg="http://www.w3.org/2000/svg"><defs
   id="defs7" /><sodipodi:namedview
   id="namedview7"
   pagecolor="#ffffff"
   bordercolor="#000000"
   borderopacity="0.25"
   inkscape:showpageshadow="2"
   inkscape:pageopacity="0.0"
   inkscape:pagecheckerboard="0"
   inkscape:deskcolor="#d1d1d1"
   inkscape:zoom="1.7377301"
   inkscape:cx="304.70785"
   inkscape:cy="27.909973"
   inkscape:window-width="3440"
   inkscape:window-height="1351"
   inkscape:window-x="-9"
   inkscape:window-y="-9"
   inkscape:window-maximized="1"
   inkscape:current-layer="g7"
   showgrid="true"><inkscape:grid
     id="grid1"
     units="px"
     originx="0"
     originy="0"
     spacingx="0.99999999"
     spacingy="0.99999998"
     empcolor="#0099e5"
     empopacity="0.30196078"
     color="#0099e5"
     opacity="0.14902"
     empspacing="5"
     enabled="true"
     visible="true" /></sodipodi:namedview>
<style
   type="text/css"
   id="style1">
	.st0{fill-rule:evenodd;clip-rule:evenodd;fill:#007447;}
</style>
<g
   id="g7"
   transform="translate(-21.440767,-252.09869)">
	<path
   class="st0"
   d="m 150.9,328.4 h -10.2 v -27.3 h 10.2 c -0.3,-4.6 0.7,-10 -0.9,-13.7 -2.2,-5.2 -10.7,-5.8 -13.3,-0.3 -1.9,4 -0.9,12 -0.9,17.8 v 55.7 h -33.2 v -35.5 c 0,-12 -0.6,-23.9 0,-35.3 0.6,-10.9 5.6,-19.6 11.4,-25.7 6.1,-6.5 14.3,-11.2 25.7,-11.9 13.6,-0.8 23.9,3.2 31.1,9.8 6.7,6.2 12.5,16 13.3,27.6 0.4,5.8 0,11.9 0,17.8 v 53.3 h -33.2"
   id="path1" />
	<path
   class="st0"
   d="m 254.2,298.3 c 0.4,-14.4 0,-29.5 0.2,-44.2 h 33.2 v 69.2 c 0,7.8 0.5,15.5 0,23 -0.7,9.2 -6.8,15.7 -15.7,16.6 -7.3,0.7 -12.4,-2 -16.1,-5.2 -4,-3.4 -6,-8 -8.4,-12.8 -4.7,-9.4 -9.8,-19 -14.3,-28 -0.4,14.3 0,29.3 -0.2,43.9 h -33.2 v -69 c 0,-7.8 -0.5,-15.5 0,-22.8 0.7,-9.3 7.2,-15.8 15.8,-16.6 7.2,-0.6 12.2,2 16,5.2 4,3.4 6.1,8.2 8.4,12.8 4.7,9.4 9.7,18.7 14.3,27.9"
   id="path2" />
	<path
   class="st0"
   d="m 90.5,254.2 v 30.5 C 81,284.3 72.9,284.8 66.7,288.4 60,292.2 55.3,299.3 56,310 c 0.6,7.8 5.1,13.6 10.7,16.8 6,3.4 14.2,4.1 23.8,3.7 V 361 c -10.2,0.2 -19.2,0.8 -27.1,-0.8 -7.5,-1.5 -13.9,-4.4 -19.5,-8.4 C 33.1,344.2 25,333 22.3,317.7 19.2,300.1 24.9,284.2 32.8,274 c 7.8,-10.1 20.3,-18.6 36.6,-19.6 6.7,-0.7 13.3,-0.2 21.1,-0.2"
   id="path3" />
	
	
	
	
</g>
</svg>
