<?xml version="1.0" encoding="utf-8"?>
<!-- Generator: Adobe Illustrator 19.2.1, SVG Export Plug-In . SVG Version: 6.00 Build 0)  -->
<svg version="1.1" id="layer" xmlns="http://www.w3.org/2000/svg" xmlns:xlink="http://www.w3.org/1999/xlink" x="0px" y="0px"
	 viewBox="0 0 652 652" style="enable-background:new 0 0 652 652;" xml:space="preserve">
<style type="text/css">
	.st0{fill-rule:evenodd;clip-rule:evenodd;fill:#007447;}
</style>
<g>
	<path class="st0" d="M150.9,328.4h-10.2v-27.3h10.2c-0.3-4.6,0.7-10-0.9-13.7c-2.2-5.2-10.7-5.8-13.3-0.3c-1.9,4-0.9,12-0.9,17.8
		v55.7h-33.2v-35.5c0-12-0.6-23.9,0-35.3c0.6-10.9,5.6-19.6,11.4-25.7c6.1-6.5,14.3-11.2,25.7-11.9c13.6-0.8,23.9,3.2,31.1,9.8
		c6.7,6.2,12.5,16,13.3,27.6c0.4,5.8,0,11.9,0,17.8v53.3h-33.2"/>
	<path class="st0" d="M254.2,298.3c0.4-14.4,0-29.5,0.2-44.2h33.2v69.2c0,7.8,0.5,15.5,0,23c-0.7,9.2-6.8,15.7-15.7,16.6
		c-7.3,0.7-12.4-2-16.1-5.2c-4-3.4-6-8-8.4-12.8c-4.7-9.4-9.8-19-14.3-28c-0.4,14.3,0,29.3-0.2,43.9h-33.2v-69
		c0-7.8-0.5-15.5,0-22.8c0.7-9.3,7.2-15.8,15.8-16.6c7.2-0.6,12.2,2,16,5.2c4,3.4,6.1,8.2,8.4,12.8
		C244.6,279.8,249.6,289.1,254.2,298.3"/>
	<path class="st0" d="M90.5,254.2v30.5c-9.5-0.4-17.6,0.1-23.8,3.7c-6.7,3.8-11.4,10.9-10.7,21.6c0.6,7.8,5.1,13.6,10.7,16.8
		c6,3.4,14.2,4.1,23.8,3.7v30.5c-10.2,0.2-19.2,0.8-27.1-0.8c-7.5-1.5-13.9-4.4-19.5-8.4c-10.8-7.6-18.9-18.8-21.6-34.1
		c-3.1-17.6,2.6-33.5,10.5-43.7c7.8-10.1,20.3-18.6,36.6-19.6C76.1,253.7,82.7,254.2,90.5,254.2"/>
	<path class="st0" d="M339,287.2c12.2-1,21.6,3.5,27.7,9.3c6.1,5.8,11.4,13.6,12.2,24.8c0.9,12.1-3.2,21.5-8.8,28.2
		c-5.5,6.6-13.5,11.8-24.4,12.6c-12,1-21.4-3.4-27.6-9.1c-6.6-6.1-11.3-13.8-12.2-24.8c-1-12.6,3.2-21.7,8.5-28.2
		C319.6,293.8,328.4,288.1,339,287.2 M319.4,304c-4.4,5.5-8.1,13.6-7.3,23.8c0.7,8.7,4.9,16,10.1,20.9c5.4,5.1,13.5,8.8,23,8.1
		c8.4-0.7,15.2-5.2,19.5-10.2c4.7-5.5,8.1-12.6,8.1-21.8c0-9.3-4-17.1-8.1-21.8c-5.2-6.1-13.7-11.1-25.1-10.1
		C330.4,293.7,323.6,298.7,319.4,304"/>
	<path class="st0" d="M406.5,353.2c0-2.3,0-4.4,0-6.4c0-0.5,0.6,0.2,0.9,0.5c6,5.1,12.1,10.3,23.8,9.4c7.7-0.6,14-4.8,18.4-9.6
		c5.4-5.9,9.1-14.2,8.4-25.1c-0.5-8.2-4-14.9-8.4-19.6c-4.8-5.2-12.1-10.5-23.2-9.6c-9.2,0.7-15.8,5.8-20.1,11.6
		c-4.8,6.5-6.7,14.6-6.7,25c0,20.2,0,42.8,0,63.2h-5.8v-68.4c0-10.8,3.7-19.2,9-25.3c6.2-7,15.4-12.6,29.1-11.7
		c12.8,0.8,21.5,8.1,26.8,16.9c5.5,9.2,7.5,23,2.9,35.5c-3.8,10.4-11.9,18.2-22.2,21.3c-5.4,1.7-13,2-19,0.3
		C414.7,359.5,410.6,356.9,406.5,353.2"/>
	<path class="st0" d="M544.8,304.6c-8.3,6.3-17.2,11.8-25.7,17.7c-8.6,5.9-17.1,11.7-25.7,17.5c-1.6-1.4-2.8-3.1-3.8-5
		c15.4-10.3,30.7-20.8,46.2-31.1c-2.2-3.6-6-6.1-10.1-8.1c-4.3-2.1-9.4-3.3-15.5-2.9c-8.3,0.6-14.7,4.4-19.6,9.4
		c-5.6,5.7-9.8,14.3-9,25.6c0.6,8.4,4.3,14.9,9,19.8c5.5,5.8,13.7,9.9,24.8,9.1c8.6-0.6,15.4-4.6,20.1-9.6
		c4.9-5.2,8.7-11.8,8.8-20.9h6.2c-0.6,11.4-4.3,18.6-10.2,24.7c-5.6,5.7-13.1,10.8-23.5,11.4c-12,0.7-21.5-2.8-28.8-8.8
		c-6.9-5.6-11.8-14-12.6-25c-1-12,2.7-21.7,8.7-28.6c5.8-6.7,14-12,25.3-12.8C527.6,285.8,537.5,294.4,544.8,304.6"/>
	<path class="st0" d="M621.1,360.8h-5.8v-34.7c0-6.1,0.2-11.7-1.1-16.3c-2.6-9.5-10.8-18.1-24.4-17.1c-6.5,0.5-11.3,3.7-14.6,7.6
		c-3.6,4.3-5.7,9.2-6.1,16.1c-0.7,13.2,0.2,29.7-0.2,44.3h-5.8c0.6-16.3-0.8-32.2,0-46.8c0.4-7.8,3.6-13.8,7.9-18.3
		c4.3-4.5,10.1-8.1,18-8.7c9.9-0.7,17.1,2.3,22.4,7c5.1,4.5,9,11.1,9.6,19.7c0.5,7.7,0,15.6,0,23.6V360.8z"/>
</g>
</svg>
