<!-- icon666.com - MILLIONS vector ICONS FREE --><svg viewBox="0 0 512 512" xmlns="http://www.w3.org/2000/svg"><g id="_49_PRO" data-name="49 PRO"><path d="m17.4946 305.9567a6 6 0 0 1 -6-6v-9a6 6 0 0 1 12 0v9a6 6 0 0 1 -6 6z"></path><path d="m453.1845 405.9366h-394.3701a47.3733 47.3733 0 0 1 -47.32-47.32v-39.76a6 6 0 0 1 12 0v39.76a35.36 35.36 0 0 0 35.32 35.32h394.37a35.36 35.36 0 0 0 35.32-35.32v-135.0896a35.36 35.36 0 0 0 -35.32-35.32h-134.98a22.0349 22.0349 0 0 1 -21.604-26.354l7.66-38.3223a7.02 7.02 0 0 0 -11.5176-6.645l-64.7983 56.9389a57.8116 57.8116 0 0 1 -38.17 14.3824h-130.9601a35.36 35.36 0 0 0 -35.32 35.32v48.53a6 6 0 0 1 -12 0v-48.53a47.3737 47.3737 0 0 1 47.32-47.32h130.96a45.8184 45.8184 0 0 0 30.25-11.3975l64.7988-56.94a19.0206 19.0206 0 0 1 31.2046 18.0131l-7.66 38.3208a10.0348 10.0348 0 0 0 9.8365 12.0035h134.98a47.3738 47.3738 0 0 1 47.32 47.32v135.09a47.3734 47.3734 0 0 1 -47.3198 47.3197z"></path><path d="m347.4511 228.3448c-30.9248 0-56.0839 28.1387-56.0839 62.7256s25.1591 62.7261 56.0839 62.7261 56.0845-28.1387 56.0845-62.7261-25.1592-62.7256-56.0845-62.7256zm0 113.4517c-24.3081 0-44.0839-22.7558-44.0839-50.7261s19.7758-50.7256 44.0839-50.7256 44.0845 22.7552 44.0845 50.7252-19.7764 50.7265-44.0845 50.7265z"></path><path d="m149.5678 228.3448h-35.1035a6 6 0 0 0 -6 6v113.4517a6 6 0 0 0 12 0v-44.6865h29.1035a33.7 33.7 0 0 0 33.6622-33.6616v-7.4419a33.7 33.7 0 0 0 -33.6622-33.6617zm21.6622 41.1036a21.6861 21.6861 0 0 1 -21.6622 21.6616h-29.1035v-50.7652h29.1035a21.6861 21.6861 0 0 1 21.6622 21.6617z"></path><path d="m249.23 228.3448h-39.5528a6 6 0 0 0 -6 6v113.4517a6 6 0 0 0 12 0v-54.7808h2.5293l47.7246 58.5708a6 6 0 0 0 9.3028-7.58l-41.5484-50.9908h15.5445a29.246 29.246 0 0 0 29.2128-29.2128v-6.2452a29.2461 29.2461 0 0 0 -29.2128-29.2129zm17.2128 35.4581a17.2323 17.2323 0 0 1 -17.2128 17.2128h-33.5528v-40.6709h33.5528a17.2323 17.2323 0 0 1 17.2128 17.2129z"></path></g></svg>